<svg version="1.2" xmlns="http://www.w3.org/2000/svg" viewBox="0 0 100 120" width="100" height="120"><style>.a{fill:none;stroke:#f5f5f5}</style><path fill-rule="evenodd" class="a" d="m257.4-32.4l-169 169"/><path fill-rule="evenodd" class="a" d="m247.4-32.4l-169 169"/><path fill-rule="evenodd" class="a" d="m237.4-32.4l-169 169"/><path fill-rule="evenodd" class="a" d="m227.4-32.4l-169 169"/><path fill-rule="evenodd" class="a" d="m217.4-32.4l-169 169"/><path fill-rule="evenodd" class="a" d="m207.4-32.4l-169 169"/><path fill-rule="evenodd" class="a" d="m197.4-32.4l-169 169"/><path fill-rule="evenodd" class="a" d="m187.4-32.4l-169 169"/><path fill-rule="evenodd" class="a" d="m177.4-32.4l-169 169"/><path fill-rule="evenodd" class="a" d="m167.4-32.4l-169 169"/><path fill-rule="evenodd" class="a" d="m157.4-32.4l-169 169"/><path fill-rule="evenodd" class="a" d="m147.4-32.4l-169 169"/><path fill-rule="evenodd" class="a" d="m137.4-32.4l-169 169"/><path fill-rule="evenodd" class="a" d="m127.4-32.4l-169 169"/><path fill-rule="evenodd" class="a" d="m117.4-32.4l-169 169"/><path fill-rule="evenodd" class="a" d="m107.4-32.4l-169 169"/><path fill-rule="evenodd" class="a" d="m97.4-32.4l-169 169"/><path fill-rule="evenodd" class="a" d="m87.4-32.4l-169 169"/><path fill-rule="evenodd" class="a" d="m77.4-32.4l-169 169"/><path fill-rule="evenodd" class="a" d="m67.4-32.4l-169 169"/><path fill-rule="evenodd" class="a" d="m57.4-32.4l-169 169"/><path fill-rule="evenodd" class="a" d="m47.4-32.4l-169 169"/><path fill-rule="evenodd" class="a" d="m37.4-32.4l-169 169"/><path fill-rule="evenodd" class="a" d="m27.4-32.4l-169 169"/><path fill-rule="evenodd" class="a" d="m267.4-32.4l-169 169"/></svg>